<?xml version="1.0" standalone="no"?>
<!DOCTYPE svg PUBLIC "-//W3C//DTD SVG 20010904//EN"
 "http://www.w3.org/TR/2001/REC-SVG-20010904/DTD/svg10.dtd">
<svg version="1.0" xmlns="http://www.w3.org/2000/svg"
 width="225.000000pt" height="225.000000pt" viewBox="0 0 225.000000 225.000000"
 preserveAspectRatio="xMidYMid meet">
<metadata>
Created by potrace 1.11, written by Peter Selinger 2001-2013
</metadata>
<g transform="translate(0.000000,225.000000) scale(0.100000,-0.100000)"
fill="#000000" stroke="none">
<path d="M1185 2073 c-18 -18 -19 -25 -3 -41 15 -15 54 -16 63 -2 20 33 -32
71 -60 43z"/>
<path d="M1439 2033 c-13 -16 -12 -17 4 -4 9 7 17 15 17 17 0 8 -8 3 -21 -13z"/>
<path d="M1028 1967 c-21 -6 -40 -18 -44 -29 -3 -11 -15 -18 -30 -18 -13 0
-24 -6 -24 -14 0 -18 -48 -68 -59 -62 -11 7 -58 -113 -67 -171 -4 -24 -11 -40
-16 -37 -6 4 -5 -3 2 -16 6 -12 18 -19 25 -16 8 3 16 0 19 -7 3 -9 5 -8 5 1 1
7 6 10 12 7 6 -4 16 1 24 11 7 11 16 16 20 12 8 -8 68 12 77 26 4 6 8 31 9 56
1 38 3 34 11 -28 8 -58 13 -71 23 -62 10 8 14 4 20 -17 7 -26 8 -26 15 -8 7
17 9 16 10 -10 1 -16 4 -24 7 -18 5 14 13 9 51 -41 12 -16 22 -24 22 -18 0 6
7 9 15 6 8 -4 15 -14 15 -23 0 -12 2 -13 9 -3 6 11 13 8 28 -12 11 -14 23 -22
27 -19 3 3 6 -5 6 -18 0 -19 2 -21 10 -9 5 8 12 11 16 7 4 -3 1 -13 -5 -21 -9
-11 -10 -20 -2 -35 6 -11 11 -36 11 -56 0 -29 3 -36 15 -31 8 3 15 0 15 -6 0
-19 29 25 30 45 0 10 4 16 10 12 5 -3 7 -12 3 -20 -3 -8 -2 -23 1 -32 11 -27
25 3 19 39 -3 20 -1 28 6 23 13 -7 13 -5 11 91 -1 40 6 96 14 125 8 30 17 68
19 84 l4 30 1 -30 c1 -16 -5 -55 -13 -85 -18 -68 -20 -156 -2 -163 10 -4 10
-6 0 -6 -7 -1 -13 -6 -13 -11 0 -6 11 -8 26 -4 21 6 25 4 19 -7 -5 -9 -1 -8
10 3 17 15 17 17 -3 39 -17 17 -19 26 -11 42 8 15 13 17 19 7 6 -10 9 -8 13 6
4 16 5 16 6 -3 1 -27 20 -40 32 -22 6 9 9 1 9 -25 0 -22 -2 -37 -5 -34 -7 7
-59 -42 -67 -63 -3 -9 -2 -22 2 -30 5 -7 5 -18 -1 -25 -6 -8 -2 -10 16 -9 14
2 27 -1 30 -5 3 -5 12 -7 20 -3 8 3 15 0 15 -7 0 -6 4 -9 9 -6 5 3 12 -1 15
-10 8 -22 8 -24 -5 -21 -18 4 -32 -28 -25 -56 4 -18 11 -24 21 -21 11 5 13 2
8 -12 -5 -14 -3 -16 13 -10 10 4 24 9 29 10 19 3 35 18 30 26 -3 5 0 20 7 32
7 13 11 28 10 34 -1 7 4 14 13 18 18 7 18 7 0 -37 -19 -47 -19 -57 1 -29 9 13
27 27 41 33 15 5 21 13 17 21 -5 8 -2 9 9 5 20 -7 22 4 5 21 -8 8 -9 12 -1 12
12 0 12 25 0 36 -4 4 -7 13 -7 21 0 7 -9 22 -20 33 -11 11 -20 15 -20 9 0 -8
-5 -8 -15 1 -8 7 -21 10 -30 6 -8 -3 -14 -2 -14 2 4 25 -2 55 -9 45 -5 -9 -13
-2 -23 21 -12 25 -12 33 -3 29 8 -3 6 8 -6 32 -10 20 -16 43 -13 50 2 8 -1 31
-7 51 -9 27 -15 33 -21 23 -7 -11 -9 -10 -9 4 0 9 -4 17 -10 17 -5 0 -10 7
-10 15 0 7 -7 18 -16 23 -14 8 -14 10 0 21 17 14 23 36 7 27 -4 -3 -7 6 -5 19
2 20 -3 26 -29 33 -30 8 -32 7 -38 -22 -6 -31 -6 -31 -8 -3 0 15 -6 27 -12 27
-5 0 -7 5 -4 10 10 16 -11 12 -25 -5 -7 -8 -19 -15 -28 -15 -13 0 -13 2 1 18
15 17 13 20 -34 61 -43 37 -50 47 -44 70 4 19 3 22 -5 11 -8 -13 -12 -11 -13
10 0 3 -9 14 -20 24 -20 19 -20 19 -14 -17 11 -69 -17 -104 -41 -52 -10 21
-15 24 -31 16 -28 -15 -55 9 -49 42 6 30 -1 32 -64 14z m16 -52 c10 -7 15 -18
11 -24 -9 -16 -51 -13 -65 4 -25 31 18 47 54 20z m26 -141 c-18 -21 -24 -10
-9 18 8 14 14 18 17 10 2 -7 -2 -19 -8 -28z m50 26 c0 -5 -4 -10 -10 -10 -5 0
-10 5 -10 10 0 6 5 10 10 10 6 0 10 -4 10 -10z m50 -45 c-5 -6 -8 -15 -5 -19
3 -3 0 -2 -7 4 -17 14 -21 52 -6 61 17 11 32 -29 18 -46z m45 -3 c-3 -3 -11 0
-18 7 -9 10 -8 11 6 5 10 -3 15 -9 12 -12z m-20 -12 c3 -5 1 -10 -4 -10 -6 0
-11 5 -11 10 0 6 2 10 4 10 3 0 8 -4 11 -10z m255 -18 c0 -4 -9 -13 -20 -20
-22 -13 -27 -3 -8 16 14 14 28 16 28 4z m-70 -22 c0 -5 -4 -10 -10 -10 -5 0
-10 5 -10 10 0 6 5 10 10 10 6 0 10 -4 10 -10z m5 -70 c19 -8 19 -9 -2 -9 -12
-1 -25 4 -28 9 -7 12 2 12 30 0z m80 -290 c3 -5 1 -10 -4 -10 -6 0 -11 5 -11
10 0 6 2 10 4 10 3 0 8 -4 11 -10z"/>
<path d="M1412 1960 c0 -14 2 -19 5 -12 2 6 2 18 0 25 -3 6 -5 1 -5 -13z"/>
<path d="M1548 1963 c6 -2 18 -2 25 0 6 3 1 5 -13 5 -14 0 -19 -2 -12 -5z"/>
<path d="M1440 1955 c0 -5 5 -17 10 -25 5 -8 10 -10 10 -5 0 6 -5 17 -10 25
-5 8 -10 11 -10 5z"/>
<path d="M1482 1930 c0 -14 2 -19 5 -12 2 6 2 18 0 25 -3 6 -5 1 -5 -13z"/>
<path d="M1578 1933 c6 -2 18 -2 25 0 6 3 1 5 -13 5 -14 0 -19 -2 -12 -5z"/>
<path d="M495 1860 c-3 -5 1 -10 10 -10 9 0 13 5 10 10 -3 6 -8 10 -10 10 -2
0 -7 -4 -10 -10z"/>
<path d="M437 1853 c-13 -12 -7 -31 11 -38 13 -5 14 -3 5 6 -6 6 -9 18 -6 25
5 15 1 18 -10 7z"/>
<path d="M493 1798 c-16 -10 -33 -16 -39 -14 -6 2 -15 -4 -22 -14 -9 -16 -6
-15 31 3 23 12 48 22 56 23 7 2 18 7 23 12 16 16 -21 9 -49 -10z"/>
<path d="M1590 1786 c0 -2 8 -10 18 -17 15 -13 16 -12 3 4 -13 16 -21 21 -21
13z"/>
<path d="M1983 1730 c-18 -11 -33 -25 -33 -32 0 -9 3 -9 8 -2 9 14 42 26 42
15 0 -4 -11 -14 -25 -21 -14 -7 -23 -15 -20 -18 8 -9 56 29 52 41 -2 7 3 17
12 24 26 20 -1 15 -36 -7z"/>
<path d="M609 1633 c-45 -54 -81 -204 -61 -248 7 -15 8 -24 2 -20 -5 3 -10 0
-10 -8 0 -8 6 -17 14 -20 18 -7 57 66 85 158 33 105 14 191 -30 138z"/>
<path d="M700 1581 c0 -8 -6 -19 -14 -25 -7 -6 -26 -48 -40 -93 -15 -45 -40
-100 -57 -122 -29 -41 -38 -68 -18 -56 6 4 14 17 19 29 7 16 9 17 9 4 1 -9 -3
-19 -8 -22 -5 -4 -12 -24 -16 -46 -4 -22 -11 -38 -15 -35 -20 12 -30 -126 -11
-149 7 -9 11 -16 8 -16 -4 0 5 -22 19 -50 14 -27 30 -50 35 -50 24 0 39 -70
36 -165 -3 -77 -1 -92 10 -84 7 6 10 15 7 20 -3 5 0 9 5 9 6 0 11 7 11 15 0 8
-4 15 -10 15 -6 0 -8 29 -7 73 2 39 0 92 -5 117 -14 74 -19 278 -7 285 6 4 9
21 8 39 -2 41 10 73 22 54 5 -7 9 -8 9 -3 1 6 3 30 5 55 1 25 6 63 9 85 l7 40
-14 -30 -14 -30 -5 28 c-3 16 -1 27 6 27 6 0 4 4 -4 10 -12 8 -12 10 3 16 9 3
17 12 17 19 0 7 6 15 13 18 10 4 10 7 0 18 -11 11 -13 11 -13 0z m-50 -195
c-17 -25 -35 -46 -40 -46 -6 0 -2 8 9 19 10 10 26 32 37 49 10 17 20 30 22 27
2 -2 -10 -24 -28 -49z"/>
<path d="M2057 1475 c4 -16 7 -42 6 -57 -1 -16 3 -28 9 -28 12 0 3 73 -13 99
-6 11 -7 7 -2 -14z"/>
<path d="M1771 1456 l-22 -24 40 0 c26 -1 44 5 53 16 12 15 11 16 -4 3 -24
-18 -55 -7 -38 14 20 25 -5 17 -29 -9z"/>
<path d="M2031 1464 c0 -11 3 -14 6 -6 3 7 2 16 -1 19 -3 4 -6 -2 -5 -13z"/>
<path d="M1445 1440 c3 -5 8 -10 11 -10 2 0 4 5 4 10 0 6 -5 10 -11 10 -5 0
-7 -4 -4 -10z"/>
<path d="M2036 1425 c4 -8 8 -15 10 -15 2 0 4 7 4 15 0 8 -4 15 -10 15 -5 0
-7 -7 -4 -15z"/>
<path d="M713 1393 c-7 -2 -13 -14 -13 -24 0 -11 4 -17 10 -14 6 3 7 -1 4 -9
-7 -17 19 -49 31 -38 4 4 5 0 3 -8 -2 -9 5 -15 19 -16 13 -1 20 3 16 11 -6 18
18 30 28 14 6 -10 9 -7 9 12 0 38 -36 79 -68 78 -15 0 -33 -3 -39 -6z"/>
<path d="M1052 1391 c-11 -6 -10 -10 4 -15 15 -6 16 -8 0 -24 -9 -11 -15 -33
-15 -53 2 -30 2 -31 6 -6 4 24 23 40 23 18 0 -5 13 -16 29 -24 19 -9 28 -10
28 -3 0 28 4 46 11 45 20 -3 23 3 11 18 -12 15 -12 16 4 10 28 -10 20 2 -15
23 -35 21 -65 25 -86 11z"/>
<path d="M1403 1347 c4 -12 1 -20 -11 -25 -22 -9 -27 -32 -7 -32 8 0 15 -7 15
-15 0 -8 3 -15 8 -15 10 0 7 88 -3 98 -5 4 -5 -1 -2 -11z"/>
<path d="M295 1290 c-3 -6 1 -7 9 -4 18 7 21 14 7 14 -6 0 -13 -4 -16 -10z"/>
<path d="M333 1283 c-7 -3 -13 -11 -13 -19 0 -9 -5 -13 -12 -9 -7 4 -6 1 2 -7
19 -16 19 -36 0 -48 -8 -5 -10 -10 -5 -10 18 0 38 18 31 28 -3 6 -1 14 5 18 8
4 7 9 -2 15 -12 8 -12 11 1 18 16 11 11 21 -7 14z"/>
<path d="M1148 1258 c-15 -15 -23 -28 -19 -28 9 0 56 49 50 53 -2 1 -16 -10
-31 -25z"/>
<path d="M245 1255 c-3 -8 -7 -22 -10 -31 -3 -8 -1 -12 4 -9 19 11 23 -17 5
-30 -11 -8 -14 -14 -9 -14 6 0 25 13 44 30 25 23 30 33 21 39 -8 5 -19 2 -27
-6 -8 -8 -17 -14 -19 -14 -9 0 1 35 11 42 6 5 5 8 -3 8 -7 0 -15 -7 -17 -15z
m40 -35 c-3 -5 -12 -10 -18 -10 -7 0 -6 4 3 10 19 12 23 12 15 0z"/>
<path d="M546 1255 c-9 -26 -7 -32 5 -12 6 10 9 21 6 23 -2 3 -7 -2 -11 -11z"/>
<path d="M1360 1255 c-7 -9 -11 -17 -9 -20 3 -2 10 5 17 15 14 24 10 26 -8 5z"/>
<path d="M1470 1252 c0 -7 -5 -11 -11 -9 -6 1 -14 -4 -16 -10 -3 -7 0 -13 6
-13 15 0 14 -33 -1 -49 -11 -10 -10 -11 5 -6 9 4 17 17 17 30 0 13 6 25 14 27
13 3 13 6 0 22 -8 11 -14 14 -14 8z"/>
<path d="M1393 1216 c-17 -50 -12 -57 20 -28 11 9 17 11 13 5 -4 -7 -2 -13 3
-13 6 0 11 9 11 20 0 11 -5 20 -11 20 -5 0 -8 4 -5 8 3 5 -1 9 -9 9 -8 0 -18
-10 -22 -21z"/>
<path d="M205 1220 c-3 -5 -1 -10 4 -10 6 0 11 5 11 10 0 6 -2 10 -4 10 -3 0
-8 -4 -11 -10z"/>
<path d="M1483 1150 c0 -55 2 -60 9 -32 5 18 5 46 -1 65 -7 27 -9 23 -8 -33z"/>
<path d="M1814 1188 l-19 -23 23 19 c21 18 27 26 19 26 -2 0 -12 -10 -23 -22z"/>
<path d="M195 1186 c-13 -9 -16 -20 -12 -38 7 -26 42 -44 53 -27 3 5 2 9 -3 8
-4 -1 -17 2 -27 6 -19 8 -19 9 0 16 19 7 19 8 0 8 -20 1 -20 1 0 15 10 8 16
17 13 20 -3 3 -14 0 -24 -8z"/>
<path d="M521 1174 c0 -11 3 -14 6 -6 3 7 2 16 -1 19 -3 4 -6 -2 -5 -13z"/>
<path d="M299 1155 c-28 -29 -36 -31 -42 -7 -4 13 -5 11 -6 -5 -2 -36 26 -30
63 15 26 30 14 28 -15 -3z"/>
<path d="M1392 1166 c-12 -7 -26 -17 -30 -21 -4 -5 -2 -5 5 -1 6 3 14 2 18 -4
3 -5 1 -10 -6 -10 -7 0 -9 -3 -6 -6 4 -4 13 -1 22 6 8 7 24 10 36 7 16 -4 18
-3 8 9 -6 7 -16 11 -22 7 -6 -4 -8 0 -4 10 3 10 5 17 4 16 -1 -1 -12 -7 -25
-13z"/>
<path d="M1311 1138 c-4 -13 -20 -59 -36 -103 -16 -44 -37 -91 -47 -104 -10
-13 -18 -30 -18 -37 0 -8 -5 -14 -11 -14 -7 0 -9 -9 -6 -21 5 -17 3 -18 -11
-7 -9 7 -14 9 -10 4 4 -5 2 -18 -4 -30 -6 -11 -10 -39 -10 -62 1 -26 -3 -46
-13 -54 -8 -7 -12 -17 -8 -23 3 -6 1 -7 -6 -3 -6 4 -18 2 -26 -4 -16 -13 -17
-11 -29 35 -3 11 -3 1 -1 -21 4 -30 0 -45 -11 -55 -17 -14 -51 -74 -36 -65 5
3 17 -3 27 -14 13 -14 16 -28 11 -53 -5 -28 -3 -34 11 -34 23 0 33 13 89 122
64 124 92 160 128 162 32 2 49 20 41 42 -3 8 0 18 7 23 10 6 10 8 1 8 -7 0
-13 9 -13 20 0 11 7 20 15 20 14 0 19 11 16 38 -1 6 3 12 8 12 6 0 8 7 5 15
-7 17 17 75 31 75 5 0 4 4 -4 9 -10 7 -11 13 -2 30 10 17 9 21 -4 21 -8 0 -15
5 -15 11 0 5 4 7 10 4 6 -3 7 1 4 10 -6 14 -8 13 -20 -4 -11 -14 -11 -26 -4
-46 13 -34 12 -45 -1 -22 -6 10 -15 14 -22 10 -9 -5 -8 -2 0 9 7 8 10 18 6 21
-3 4 -1 13 6 20 8 10 8 22 0 46 -10 29 -12 30 -25 14 -13 -17 -14 -17 -8 0 3
9 3 17 0 17 -4 0 -10 -10 -15 -22z m16 -200 c-3 -8 -6 -5 -6 6 -1 11 2 17 5
13 3 -3 4 -12 1 -19z m3 -146 c0 -5 -7 -9 -15 -9 -8 0 -12 4 -9 9 3 4 9 8 15
8 5 0 9 -4 9 -8z m-151 -145 c0 -9 -2 -8 -6 1 -2 6 -10 9 -15 6 -7 -4 -8 -2
-4 5 9 13 26 5 25 -12z"/>
<path d="M517 1113 c-4 -3 -7 -16 -6 -27 0 -19 1 -19 10 3 10 24 8 36 -4 24z"/>
<path d="M1734 1102 c3 -5 -4 -16 -15 -25 -10 -9 -19 -25 -18 -34 0 -15 2 -14
9 3 5 12 18 29 30 37 18 12 19 15 5 21 -9 3 -14 2 -11 -2z"/>
<path d="M1640 1029 c-20 -38 -22 -40 -35 -22 -7 10 -11 20 -9 23 3 2 9 -1 13
-9 6 -10 10 -9 14 4 4 9 3 14 -2 10 -5 -3 -11 -1 -13 5 -2 5 -18 1 -36 -10
-35 -22 -75 -78 -65 -93 3 -6 1 -7 -5 -3 -6 3 -14 2 -17 -4 -8 -13 33 -49 56
-50 8 0 35 -13 60 -28 126 -82 205 -127 217 -124 8 2 11 -1 7 -7 -3 -6 -2 -18
3 -27 8 -14 10 -14 21 0 8 9 21 16 31 16 19 0 34 26 24 41 -3 6 -15 7 -26 3
-28 -9 -19 17 11 32 22 12 22 12 -12 23 -20 7 -47 28 -62 47 -14 19 -30 32
-35 29 -4 -3 -10 2 -14 10 -3 8 0 15 7 15 7 0 1 6 -13 13 -13 7 -30 22 -36 35
-6 12 -14 19 -18 14 -4 -4 -5 5 -1 21 5 18 3 27 -5 27 -7 0 -10 -6 -7 -12 2
-7 1 -21 -2 -31 -6 -17 -8 -17 -31 3 -23 20 -23 21 -7 55 23 49 12 44 -13 -6z
m44 -160 c4 -8 0 -5 -8 5 -9 11 -16 31 -15 45 1 24 2 24 8 -5 4 -17 11 -37 15
-45z"/>
<path d="M129 995 c-1 -3 -2 -11 -3 -17 -1 -7 -8 -12 -15 -10 -7 1 -10 -2 -6
-8 5 -8 11 -8 21 1 7 6 12 15 9 19 -3 5 1 11 7 13 10 4 10 6 1 6 -7 1 -14 -1
-14 -4z"/>
<path d="M66 983 c5 -5 12 -12 16 -18 4 -6 8 -2 8 8 0 9 -7 17 -17 17 -9 0
-12 -3 -7 -7z"/>
<path d="M169 933 c-14 -43 -27 -55 -51 -47 -12 4 -18 0 -18 -11 0 -12 6 -15
23 -10 30 9 67 55 67 83 0 32 -7 27 -21 -15z"/>
<path d="M61 936 c-9 -10 -9 -16 -1 -21 12 -8 40 12 40 28 0 6 -7 2 -15 -9
-13 -16 -14 -16 -9 -1 7 21 1 22 -15 3z"/>
<path d="M221 877 c0 -10 -5 -16 -10 -12 -6 3 -9 -4 -8 -15 1 -17 3 -18 15 -6
8 7 12 22 9 32 -4 18 -5 18 -6 1z"/>
<path d="M127 823 c-4 -3 -7 -11 -7 -17 0 -6 5 -4 10 4 5 8 10 10 10 3 0 -6 8
-10 18 -8 9 2 22 4 27 4 15 2 -18 21 -36 21 -9 0 -19 -3 -22 -7z"/>
<path d="M1578 793 c6 -2 18 -2 25 0 6 3 1 5 -13 5 -14 0 -19 -2 -12 -5z"/>
<path d="M1096 777 c3 -10 9 -15 12 -12 3 3 0 11 -7 18 -10 9 -11 8 -5 -6z"/>
<path d="M1628 783 c7 -3 16 -2 19 1 4 3 -2 6 -13 5 -11 0 -14 -3 -6 -6z"/>
<path d="M152 758 c3 -7 16 -13 30 -14 14 -1 30 -4 35 -7 6 -4 13 -1 16 6 4
10 -6 12 -37 10 -29 -2 -37 0 -26 7 13 8 12 10 -3 10 -11 0 -17 -6 -15 -12z"/>
<path d="M266 738 c-11 -41 -8 -52 9 -38 18 15 20 34 3 25 -7 -4 -5 0 4 8 10
8 15 17 11 20 -12 12 -21 7 -27 -15z"/>
<path d="M1992 738 c-7 -7 -12 -21 -12 -31 0 -16 3 -17 14 -8 15 13 28 51 17
51 -4 0 -12 -5 -19 -12z"/>
<path d="M426 697 c3 -10 9 -15 12 -12 3 3 0 11 -7 18 -10 9 -11 8 -5 -6z"/>
<path d="M166 685 c-3 -9 0 -15 9 -15 8 0 15 6 15 13 0 8 3 7 10 -3 5 -8 12
-11 15 -8 11 11 -5 28 -25 28 -10 0 -20 -7 -24 -15z"/>
<path d="M310 689 c0 -5 6 -7 13 -4 6 4 5 1 -3 -7 -15 -13 -26 -48 -16 -48 6
0 36 55 36 65 0 3 -7 5 -15 5 -8 0 -15 -5 -15 -11z"/>
<path d="M230 680 c0 -5 7 -10 16 -10 8 0 12 5 9 10 -3 6 -10 10 -16 10 -5 0
-9 -4 -9 -10z"/>
<path d="M642 668 c-7 -7 -12 -21 -12 -32 1 -18 3 -17 16 7 17 31 15 44 -4 25z"/>
<path d="M355 630 c-3 -5 -1 -10 4 -10 6 0 11 5 11 10 0 6 -2 10 -4 10 -3 0
-8 -4 -11 -10z"/>
<path d="M1000 626 c0 -8 4 -17 9 -20 5 -4 7 3 4 14 -6 23 -13 26 -13 6z"/>
<path d="M229 604 c-7 -8 -9 -17 -5 -21 3 -3 6 0 6 8 0 11 2 11 9 1 6 -11 14
-10 39 5 l31 19 -34 1 c-19 1 -40 -5 -46 -13z m31 -4 c0 -5 -2 -10 -4 -10 -3
0 -8 5 -11 10 -3 6 -1 10 4 10 6 0 11 -4 11 -10z"/>
<path d="M1417 585 c-19 -39 -22 -59 -7 -35 8 13 10 12 11 -5 1 -11 5 0 10 24
11 56 7 60 -14 16z"/>
<path d="M1270 570 c-6 -11 -8 -20 -6 -20 3 0 10 9 16 20 6 11 8 20 6 20 -3 0
-10 -9 -16 -20z"/>
<path d="M1940 571 c0 -5 5 -13 10 -16 6 -3 10 -2 10 4 0 5 -4 13 -10 16 -5 3
-10 2 -10 -4z"/>
<path d="M1915 560 c3 -5 8 -10 11 -10 2 0 4 5 4 10 0 6 -5 10 -11 10 -5 0 -7
-4 -4 -10z"/>
<path d="M1825 550 c-3 -5 -1 -10 4 -10 6 0 11 5 11 10 0 6 -2 10 -4 10 -3 0
-8 -4 -11 -10z"/>
<path d="M1145 479 c-16 -28 -28 -60 -26 -72 6 -39 22 -59 41 -54 11 3 21 0
23 -7 5 -12 11 1 21 44 3 14 15 36 25 50 16 20 22 22 34 11 13 -10 15 -9 10 9
-4 13 -11 19 -20 16 -8 -3 -17 -6 -19 -6 -3 0 -10 -12 -16 -27 -10 -25 -12
-26 -15 -8 -2 11 -8 29 -13 40 -5 11 -10 28 -12 37 -2 11 -13 0 -33 -33z"/>
<path d="M1848 433 c12 -2 32 -2 45 0 12 2 2 4 -23 4 -25 0 -35 -2 -22 -4z"/>
<path d="M1915 420 c-3 -5 -15 -10 -26 -10 -11 0 -18 -3 -15 -8 7 -11 71 -6
92 8 16 10 16 11 2 6 -10 -3 -20 -1 -23 4 -8 13 -22 13 -30 0z"/>
<path d="M1073 400 c-38 -18 -44 -34 -8 -20 21 8 25 6 25 -7 0 -12 3 -14 11
-6 6 6 9 19 7 29 -3 18 -5 18 -35 4z"/>
<path d="M1900 380 c-9 -6 -10 -10 -3 -10 6 0 15 5 18 10 8 12 4 12 -15 0z"/>
<path d="M1798 364 c28 -20 55 -25 73 -13 16 10 5 13 -41 10 -20 -2 -22 0 -10
8 12 9 9 11 -15 11 l-29 0 22 -16z"/>
<path d="M635 339 c-11 -17 1 -21 36 -14 23 5 28 10 18 16 -19 12 -46 11 -54
-2z"/>
<path d="M920 335 c0 -8 4 -15 8 -15 5 0 9 7 9 15 0 8 -4 15 -9 15 -4 0 -8 -7
-8 -15z"/>
<path d="M1079 347 c-1 -4 -3 -11 -4 -17 -1 -5 -3 -15 -4 -21 0 -5 -5 -7 -11
-4 -5 3 -10 1 -10 -4 0 -6 5 -11 11 -11 5 0 7 -6 4 -12 -4 -7 1 -4 9 6 14 17
16 18 16 3 0 -9 5 -17 11 -17 5 0 8 4 4 9 -3 5 -1 13 5 16 6 4 9 1 8 -6 -2 -7
2 -13 7 -14 6 0 17 -4 25 -9 8 -5 -3 11 -25 35 -22 24 -41 46 -42 48 -2 2 -4
1 -4 -2z"/>
<path d="M765 310 c-3 -6 1 -7 9 -4 18 7 21 14 7 14 -6 0 -13 -4 -16 -10z"/>
<path d="M877 306 c-4 -10 -1 -13 8 -9 8 3 12 9 9 14 -7 12 -11 11 -17 -5z"/>
<path d="M736 297 c3 -10 9 -15 12 -12 3 3 0 11 -7 18 -10 9 -11 8 -5 -6z"/>
<path d="M721 278 c-1 -22 11 -29 29 -16 12 8 12 9 -2 4 -10 -3 -18 1 -21 12
-4 16 -5 16 -6 0z"/>
<path d="M849 288 c-6 -21 -5 -38 2 -38 5 0 9 9 9 20 0 16 -7 28 -11 18z"/>
<path d="M936 272 c-3 -5 1 -9 9 -9 8 0 12 4 9 9 -3 4 -7 8 -9 8 -2 0 -6 -4
-9 -8z"/>
<path d="M1335 269 c-4 -6 -13 -8 -21 -5 -8 3 -14 -1 -14 -10 0 -11 4 -12 19
-4 19 10 37 30 27 30 -3 0 -8 -5 -11 -11z"/>
<path d="M975 260 c3 -5 14 -10 23 -10 15 0 15 2 2 10 -20 13 -33 13 -25 0z"/>
<path d="M810 196 c0 -2 8 -10 18 -17 15 -13 16 -12 3 4 -13 16 -21 21 -21 13z"/>
<path d="M1442 170 c7 -10 15 -16 18 -12 3 4 10 11 15 15 6 5 3 7 -7 3 -10 -3
-18 -1 -18 4 0 6 -5 10 -10 10 -6 0 -5 -8 2 -20z"/>
<path d="M1252 150 c-15 -24 -16 -40 -2 -40 6 0 10 7 10 15 0 18 16 20 26 4 4
-8 9 -7 15 2 4 8 1 18 -9 26 -23 17 -25 16 -40 -7z"/>
</g>
</svg>
